<?xml version="1.0" encoding="UTF-8" standalone="no"?>
<!-- Created with Inkscape (http://www.inkscape.org/) -->

<svg
   xmlns:dc="http://purl.org/dc/elements/1.1/"
   xmlns:cc="http://creativecommons.org/ns#"
   xmlns:rdf="http://www.w3.org/1999/02/22-rdf-syntax-ns#"
   xmlns:svg="http://www.w3.org/2000/svg"
   xmlns="http://www.w3.org/2000/svg"
   xmlns:xlink="http://www.w3.org/1999/xlink"
   xmlns:sodipodi="http://sodipodi.sourceforge.net/DTD/sodipodi-0.dtd"
   xmlns:inkscape="http://www.inkscape.org/namespaces/inkscape"
   id="svg2"
   version="1.1"
   inkscape:version="0.91 r13725"
   xml:space="preserve"
   width="1364.2937"
   height="1449.0546"
   viewBox="0 0 1364.2938 1449.0545"
   sodipodi:docname="decker.svg"
   inkscape:export-filename="/home/eric/data/WORK/PROJECT/TOOL/DECKER/LOGO/decker.png"
   inkscape:export-xdpi="90"
   inkscape:export-ydpi="90"><metadata
     id="metadata8"><rdf:RDF><cc:Work
         rdf:about=""><dc:format>image/svg+xml</dc:format><dc:type
           rdf:resource="http://purl.org/dc/dcmitype/StillImage" /><dc:title></dc:title></cc:Work></rdf:RDF></metadata><defs
     id="defs6"><linearGradient
       inkscape:collect="always"
       id="linearGradient4316"><stop
         style="stop-color:#ff9a20;stop-opacity:1"
         offset="0"
         id="stop4318" /><stop
         id="stop4324"
         offset="0.50968331"
         style="stop-color:#ff2020;stop-opacity:1" /><stop
         style="stop-color:#ff9920;stop-opacity:1"
         offset="1"
         id="stop4320" /></linearGradient><clipPath
       clipPathUnits="userSpaceOnUse"
       id="clipPath16"><path
         d="m 0,2400 2400,0 L 2400,0 0,0 0,2400 Z"
         id="path18"
         inkscape:connector-curvature="0" /></clipPath><clipPath
       clipPathUnits="userSpaceOnUse"
       id="clipPath34"><path
         d="m 0,2400 2400,0 L 2400,0 0,0 0,2400 Z"
         id="path36"
         inkscape:connector-curvature="0" /></clipPath><clipPath
       clipPathUnits="userSpaceOnUse"
       id="clipPath56"><path
         d="m 0,2400 2400,0 L 2400,0 0,0 0,2400 Z"
         id="path58"
         inkscape:connector-curvature="0" /></clipPath><clipPath
       clipPathUnits="userSpaceOnUse"
       id="clipPath74"><path
         d="m 0,2400 2400,0 L 2400,0 0,0 0,2400 Z"
         id="path76"
         inkscape:connector-curvature="0" /></clipPath><linearGradient
       inkscape:collect="always"
       xlink:href="#linearGradient4316"
       id="linearGradient4322"
       x1="2233.6833"
       y1="-2101.1331"
       x2="453.97421"
       y2="-2097.6116"
       gradientUnits="userSpaceOnUse" /><clipPath
       clipPathUnits="userSpaceOnUse"
       id="clipPath4209"><g
         style="fill:#ff0000;fill-opacity:1"
         clip-path="url(#clipPath16)"
         id="g4211"
         transform="matrix(2.0635153,0,0,-2.151038,-169.69721,2054.9341)"><g
           style="fill:#ff0000;fill-opacity:1"
           transform="translate(669.7393,1603.146)"
           id="g4213"><path
             inkscape:connector-curvature="0"
             id="path4215"
             style="fill:#ff0000;fill-opacity:1;fill-rule:nonzero;stroke:none"
             d="M 0,0 -19.792,9.871 3.162,14.913 24.615,4.216 0,0 Z M 493.46,260.286 C 433.151,169.83 293.361,115.006 183.714,97.188 157.418,27.065 116.201,-33.374 48.226,-54.819 l -5.551,40.711 22.673,7.817 18.465,-3.62 -11.752,30.224 -35.261,0 -7.558,15.952 -79.756,0 -20.045,-89.081 c -64.423,23.033 -103.965,81.971 -129.483,150.007 -109.646,17.815 -249.437,72.639 -309.746,163.099 -8.857,-26.08 -11.448,-51.575 -9.167,-76.248 41.26,-45.857 98.436,-82.05 151.715,-88.222 -41.881,-3.104 -88.583,2.159 -132.428,19.461 9.607,-20.508 22.254,-40.127 37.06,-58.685 41.245,-13.781 87.673,-19.858 151.563,-8.749 -35.551,-20.146 -75.05,-30.057 -113.213,-32.836 16.769,-15.938 34.828,-30.78 53.452,-44.357 27.841,-1.834 56.989,3.364 84.859,23.055 -9.817,-17.872 -24.788,-36.914 -46.407,-48.911 12.647,-7.832 25.3,-15.094 37.745,-21.67 5.89,-3.11 11.708,-6.243 17.526,-9.376 28.151,5.572 42.61,19.8 52.448,33.861 2.909,-17.432 -6.496,-37.015 -23.416,-49.77 102.27,-57.105 189.778,-117.024 239.887,-170.707 50.11,53.683 137.618,113.598 239.888,170.707 -16.92,12.755 -26.326,32.338 -23.417,49.766 9.839,-14.057 24.297,-28.288 52.449,-33.861 5.818,3.137 11.636,6.27 17.525,9.38 12.446,6.573 25.099,13.834 37.745,21.67 -21.618,11.997 -36.589,31.035 -46.406,48.911 27.87,-19.695 57.018,-24.892 84.859,-23.055 18.623,13.577 36.683,28.415 53.452,44.357 -38.163,2.779 -77.662,12.69 -113.213,32.836 63.889,-11.109 110.318,-5.035 151.563,8.749 14.805,18.558 27.451,38.177 37.059,58.681 -43.844,-17.302 -90.546,-22.565 -132.427,-19.461 53.278,6.176 110.455,42.365 151.715,88.226 2.279,24.669 -0.311,50.165 -9.168,76.244" /></g></g></clipPath><linearGradient
       gradientUnits="userSpaceOnUse"
       y2="488.91"
       x2="0"
       y1="534.67999"
       id="grad0"
       gradientTransform="matrix(13.780464,0,0,13.780464,-6110.3117,-8896.3013)"><stop
         id="stop4162"
         stop-color="#1584d8"
         offset="0" /><stop
         id="stop4164"
         stop-color="#1cb2ff"
         offset="1" /></linearGradient></defs><sodipodi:namedview
     pagecolor="#ffffff"
     bordercolor="#666666"
     borderopacity="1"
     objecttolerance="10"
     gridtolerance="10"
     guidetolerance="10"
     inkscape:pageopacity="0"
     inkscape:pageshadow="2"
     inkscape:window-width="3840"
     inkscape:window-height="2136"
     id="namedview4"
     showgrid="false"
     inkscape:zoom="0.89001172"
     inkscape:cx="341.31033"
     inkscape:cy="620.00093"
     inkscape:window-x="0"
     inkscape:window-y="0"
     inkscape:window-maximized="1"
     inkscape:current-layer="layer1"
     fit-margin-top="80"
     fit-margin-left="80"
     fit-margin-right="80"
     fit-margin-bottom="80"
     showguides="false" /><g
     inkscape:groupmode="layer"
     id="layer1"
     inkscape:label="title"
     style="display:inline"
     transform="translate(-549.55923,-105.47032)"><text
       transform="scale(0.84634104,1.1815568)"
       style="font-variant:normal;font-weight:normal;font-stretch:normal;font-size:388.0942688px;font-family:Times;-inkscape-font-specification:Times-Roman;writing-mode:lr-tb;display:inline;fill:#ff0464;fill-opacity:1;fill-rule:nonzero;stroke:none"
       id="text24"
       x="743.85999"
       y="1247.9509"><tspan
         x="743.85999"
         sodipodi:role="line"
         id="tspan28"
         y="1247.9509"
         style="font-style:normal;font-variant:normal;font-weight:normal;font-stretch:normal;font-family:Bitsumishi;-inkscape-font-specification:Bitsumishi;fill:#ff0464;fill-opacity:1">DECKER</tspan></text>
<g
       id="g4224"
       transform="translate(74.704831,0)"><rect
         transform="matrix(0.96650847,0.25663471,-0.25663471,0.96650847,0,0)"
         style="fill:#1baefc;fill-opacity:1;stroke:#000000;stroke-width:35;stroke-linejoin:round;stroke-miterlimit:4;stroke-dasharray:none;stroke-opacity:1"
         id="rect4202"
         width="487.11993"
         height="700.04364"
         x="1152.9554"
         y="39.031887" /><rect
         y="309.11627"
         x="921.12616"
         height="700.04364"
         width="487.11993"
         id="rect4182"
         style="fill:#1baefc;fill-opacity:1;stroke:#000000;stroke-width:35;stroke-linejoin:round;stroke-miterlimit:4;stroke-dasharray:none;stroke-opacity:1" /><rect
         transform="matrix(0.96596203,-0.25868388,0.25868388,0.96596203,0,0)"
         style="fill:#1baefc;fill-opacity:1;stroke:#000000;stroke-width:35;stroke-linejoin:round;stroke-miterlimit:4;stroke-dasharray:none;stroke-opacity:1"
         id="rect4204"
         width="487.11993"
         height="700.04364"
         x="628.62128"
         y="508.91656" /><path
         transform="matrix(0.96596203,-0.25868388,0.25868388,0.96596203,-55.833735,222.95612)"
         inkscape:transform-center-y="-16.82356"
         inkscape:transform-center-x="1.304286"
         d="m 1099.6991,825.39752 -112.49486,-55.97546 -109.88629,60.93724 18.473,-124.28634 -91.91149,-85.67743 123.9118,-20.83773 53.08187,-113.8888 58.10867,111.40791 124.7179,15.29029 -87.9986,89.6916 z"
         inkscape:randomized="0"
         inkscape:rounded="0"
         inkscape:flatsided="false"
         sodipodi:arg2="1.548488"
         sodipodi:arg1="0.92016945"
         sodipodi:r2="94.607895"
         sodipodi:r1="189.21579"
         sodipodi:cy="674.83771"
         sodipodi:cx="985.09387"
         sodipodi:sides="5"
         id="path4199"
         style="display:inline;fill:#a6e0ff;fill-opacity:1;stroke:#000000;stroke-width:35;stroke-linejoin:round;stroke-miterlimit:4;stroke-dasharray:none;stroke-opacity:1"
         sodipodi:type="star" /></g></g></svg>